<?xml version="1.0" encoding="UTF-8"?>
<svg id="Layer_2" data-name="Layer 2" xmlns="http://www.w3.org/2000/svg" viewBox="0 0 174.35 42.26">
  <defs>
    <style>
      .cls-1 {
        fill: #fff;
        stroke-width: 0px;
      }
    </style>
  </defs>
  <g id="Isolation_Mode" data-name="Isolation Mode">
    <g>
      <path class="cls-1" d="M73.8,29.96c-1.02,1.38-2.34,2.5-3.96,3.36s-3.57,1.29-5.85,1.29c-1.96,0-3.77-.33-5.43-1-1.66-.67-3.09-1.6-4.29-2.8-1.2-1.2-2.14-2.63-2.81-4.29-.68-1.66-1.02-3.48-1.02-5.47s.35-3.84,1.04-5.5c.69-1.66,1.65-3.08,2.87-4.25,1.22-1.17,2.67-2.09,4.34-2.74s3.49-.98,5.45-.98c.87,0,1.76.09,2.65.25.9.17,1.76.42,2.58.76.82.34,1.57.76,2.25,1.25.68.5,1.26,1.07,1.74,1.73l-2.83,2.18c-.63-.87-1.52-1.59-2.67-2.16-1.15-.57-2.39-.85-3.72-.85-1.5,0-2.85.27-4.05.82s-2.22,1.29-3.07,2.23c-.85.94-1.5,2.04-1.96,3.29s-.69,2.57-.69,3.98.22,2.81.67,4.07c.45,1.26,1.09,2.36,1.93,3.29.84.93,1.85,1.67,3.05,2.2,1.2.53,2.54.8,4.01.8s2.77-.29,3.96-.87c1.19-.58,2.17-1.43,2.94-2.54l2.87,1.96Z"/>
      <path class="cls-1" d="M81.07,33.96h-3.6V8.24h3.6v25.72Z"/>
      <path class="cls-1" d="M96.33,33.96h-3.6V11.4h-8.25v-3.16h20.09v3.16h-8.25v22.56Z"/>
      <path class="cls-1" d="M131.63,8.24h8.83c1.65,0,3.29.24,4.94.73,1.65.48,3.14,1.25,4.47,2.29,1.33,1.04,2.41,2.37,3.23,4,.82,1.62,1.24,3.57,1.24,5.85s-.41,4.11-1.24,5.72-1.9,2.94-3.23,4c-1.33,1.05-2.82,1.84-4.47,2.36-1.65.52-3.29.78-4.94.78h-8.83V8.24ZM135.23,30.8h4.5c1.55,0,2.98-.22,4.3-.65s2.46-1.07,3.41-1.89c.96-.82,1.7-1.84,2.23-3.05.53-1.21.8-2.58.8-4.11s-.27-3-.8-4.21c-.53-1.21-1.28-2.22-2.23-3.03-.96-.81-2.09-1.43-3.41-1.85s-2.75-.64-4.3-.64h-4.5v19.43Z"/>
      <path class="cls-1" d="M162.87,30.76h11.48v3.2h-15.07V8.24h3.6v22.52Z"/>
      <polyline class="cls-1" points="115.54 12.42 120.34 24.48 120.34 24.48 121.64 27.64 121.64 27.64 124.26 33.96 128.33 33.96 117.28 8.24 114.01 8.24 102.86 33.96 106.86 33.96 109.44 27.64"/>
      <polygon class="cls-1" points="21.13 0 0 21.13 21.13 42.26 28.77 34.62 26.23 32.08 21.13 37.19 5.07 21.13 21.13 5.07 37.19 21.13 32.08 26.23 34.62 28.77 42.26 21.13 21.13 0"/>
      <rect class="cls-1" x="16.99" y="16.96" width="8.28" height="8.28" transform="translate(21.11 -8.76) rotate(45)"/>
    </g>
  </g>
</svg>