<?xml version="1.0" encoding="UTF-8"?>
<svg id="Layer_2" data-name="Layer 2" xmlns="http://www.w3.org/2000/svg" viewBox="0 0 437.44 8.72">
  <defs>
    <style>
      .cls-1 {
        fill: #fff;
        stroke-width: 0px;
      }
    </style>
  </defs>
  <g id="Isolation_Mode" data-name="Isolation Mode">
    <path class="cls-1" d="M1.81,8.44c-.53-.19-.96-.46-1.27-.81C.23,7.27.05,6.86,0,6.39v-.08s.93,0,.93,0v.08c.06.32.2.61.44.85.24.24.56.43.95.56s.86.2,1.38.2.97-.07,1.35-.2c.38-.13.68-.32.89-.56.21-.24.32-.53.32-.85h0c0-.42-.17-.75-.5-1s-.88-.45-1.65-.59l-1.08-.21c-.96-.19-1.66-.46-2.11-.83S.25,2.9.25,2.3H.25c0-.46.15-.85.44-1.2S1.37.49,1.88.29c.51-.2,1.08-.29,1.73-.29s1.21.1,1.71.3.9.47,1.2.82c.3.35.47.76.5,1.22v.08s-.93,0-.93,0v-.08c-.06-.33-.19-.62-.41-.86-.22-.24-.5-.42-.86-.55s-.77-.2-1.23-.2-.89.06-1.25.19-.64.31-.84.54c-.2.23-.3.5-.3.8h0c0,.4.17.72.5.97.33.25.86.44,1.58.58l1.08.21c1.01.2,1.74.47,2.18.83s.67.85.67,1.48h0c0,.49-.14.91-.43,1.27-.29.36-.7.63-1.23.83s-1.16.29-1.88.29-1.32-.1-1.85-.29Z"/>
    <path class="cls-1" d="M19.14.86h-3.27V.13h7.47v.72h-3.27v7.73h-.93V.86Z"/>
    <path class="cls-1" d="M32.78.13h3.49c.64,0,1.2.1,1.68.3.47.2.84.49,1.1.86.26.37.39.81.39,1.31h0c0,.61-.19,1.11-.57,1.54s-.89.71-1.55.86l2.4,3.59h-1.09l-2.28-3.47s-.06,0-.1,0h-2.53v3.46h-.93V.13ZM36.19,4.42c.72,0,1.28-.16,1.68-.47s.6-.75.6-1.31h0c0-.57-.21-1.01-.62-1.32-.41-.31-.98-.47-1.7-.47h-2.44v3.57h2.48Z"/>
    <path class="cls-1" d="M52.17.13h.69v.97h-.24l-3.2,7.48h-.99L52.17.13ZM50.37,5.31h4.51l.31.69h-5.13l.31-.69ZM52.64,1.11V.13h.45l3.72,8.46h-.98l-3.19-7.48Z"/>
    <path class="cls-1" d="M67.36.86h-3.27V.13h7.47v.72h-3.27v7.73h-.93V.86Z"/>
    <path class="cls-1" d="M81,.13h5.97v.72h-5.04v3.05h4.79v.71h-4.79v3.25h5.04v.72h-5.97V.13Z"/>
    <path class="cls-1" d="M98.52,8.18c-.66-.36-1.18-.88-1.54-1.54-.37-.66-.55-1.44-.55-2.33h0c0-.88.18-1.65.54-2.29s.88-1.14,1.54-1.49c.66-.35,1.44-.53,2.34-.53.72,0,1.35.11,1.9.33s1,.52,1.36.92.62.85.77,1.38l.03.09h-.97l-.03-.06c-.23-.62-.61-1.1-1.14-1.43s-1.17-.49-1.92-.49-1.33.14-1.85.43c-.52.29-.92.7-1.2,1.23-.28.53-.43,1.17-.43,1.91h0c0,.76.14,1.41.43,1.96s.69.98,1.21,1.27c.52.3,1.14.45,1.84.45.64,0,1.19-.12,1.67-.35.48-.23.85-.55,1.12-.97.26-.41.4-.89.4-1.44v-.19h-3.08v-.7h4.01v.7c0,.76-.17,1.41-.5,1.96-.33.55-.8.97-1.42,1.27-.61.3-1.35.45-2.2.45s-1.67-.18-2.34-.54Z"/>
    <path class="cls-1" d="M117.37,4.93l-3.55-4.8h1.07l2.93,4.01h.03l2.93-4.01h1.07l-3.54,4.8v3.66h-.93v-3.66Z"/>
    <path class="cls-1" d="M129.85,8.51c-.12-.11-.19-.23-.19-.39s.06-.28.19-.38.27-.16.45-.16.33.05.45.16.18.23.18.38-.06.28-.18.39-.27.16-.45.16-.33-.05-.45-.16Z"/>
    <path class="cls-1" d="M152.5,8.44c-.53-.19-.96-.46-1.27-.81-.31-.35-.49-.76-.53-1.24v-.08s.93,0,.93,0v.08c.06.32.2.61.44.85.24.24.56.43.95.56s.86.2,1.38.2.97-.07,1.35-.2c.38-.13.68-.32.89-.56.21-.24.32-.53.32-.85h0c0-.42-.17-.75-.5-1s-.88-.45-1.65-.59l-1.08-.21c-.96-.19-1.66-.46-2.11-.83s-.67-.85-.67-1.45h0c0-.46.15-.85.44-1.2s.69-.61,1.19-.81c.51-.2,1.08-.29,1.73-.29s1.21.1,1.71.3.9.47,1.2.82c.3.35.47.76.5,1.22v.08s-.93,0-.93,0v-.08c-.06-.33-.19-.62-.41-.86-.22-.24-.5-.42-.86-.55s-.77-.2-1.23-.2-.89.06-1.25.19-.64.31-.84.54c-.2.23-.3.5-.3.8h0c0,.4.17.72.5.97.33.25.86.44,1.58.58l1.08.21c1.01.2,1.74.47,2.18.83s.67.85.67,1.48h0c0,.49-.14.91-.43,1.27-.29.36-.7.63-1.23.83s-1.16.29-1.88.29-1.32-.1-1.85-.29Z"/>
    <path class="cls-1" d="M170.04,4.93l-3.55-4.8h1.07l2.93,4.01h.03l2.93-4.01h1.07l-3.54,4.8v3.66h-.93v-3.66Z"/>
    <path class="cls-1" d="M184.74,8.44c-.53-.19-.96-.46-1.27-.81-.31-.35-.49-.76-.53-1.24v-.08s.93,0,.93,0v.08c.06.32.2.61.44.85.24.24.56.43.95.56s.86.2,1.38.2.97-.07,1.35-.2c.38-.13.68-.32.89-.56.21-.24.32-.53.32-.85h0c0-.42-.17-.75-.5-1s-.88-.45-1.65-.59l-1.08-.21c-.96-.19-1.66-.46-2.11-.83s-.67-.85-.67-1.45h0c0-.46.15-.85.44-1.2s.69-.61,1.19-.81c.51-.2,1.08-.29,1.73-.29s1.21.1,1.71.3.9.47,1.2.82c.3.35.47.76.5,1.22v.08s-.93,0-.93,0v-.08c-.06-.33-.19-.62-.41-.86-.22-.24-.5-.42-.86-.55s-.77-.2-1.23-.2-.89.06-1.25.19-.64.31-.84.54c-.2.23-.3.5-.3.8h0c0,.4.17.72.5.97.33.25.86.44,1.58.58l1.08.21c1.01.2,1.74.47,2.18.83s.67.85.67,1.48h0c0,.49-.14.91-.43,1.27-.29.36-.7.63-1.23.83s-1.16.29-1.88.29-1.32-.1-1.85-.29Z"/>
    <path class="cls-1" d="M202.07.86h-3.27V.13h7.47v.72h-3.27v7.73h-.93V.86Z"/>
    <path class="cls-1" d="M215.71.13h5.97v.72h-5.04v3.05h4.79v.71h-4.79v3.25h5.04v.72h-5.97V.13Z"/>
    <path class="cls-1" d="M231.54.13h1.07l3.67,7.45h.03l3.67-7.45h1.08v8.46h-.88V1.63h-.45l1.05-1.32-4.09,8.27h-.82l-4.09-8.27,1.05,1.32h-.45v6.96h-.87V.13Z"/>
    <path class="cls-1" d="M252.49,8.44c-.53-.19-.96-.46-1.27-.81-.31-.35-.49-.76-.53-1.24v-.08s.93,0,.93,0v.08c.06.32.2.61.44.85.24.24.56.43.95.56s.86.2,1.38.2.97-.07,1.35-.2c.38-.13.68-.32.89-.56.21-.24.32-.53.32-.85h0c0-.42-.17-.75-.5-1s-.88-.45-1.65-.59l-1.08-.21c-.96-.19-1.66-.46-2.11-.83s-.67-.85-.67-1.45h0c0-.46.15-.85.44-1.2s.69-.61,1.19-.81c.51-.2,1.08-.29,1.73-.29s1.21.1,1.71.3.9.47,1.2.82c.3.35.47.76.5,1.22v.08s-.93,0-.93,0v-.08c-.06-.33-.19-.62-.41-.86-.22-.24-.5-.42-.86-.55s-.77-.2-1.23-.2-.89.06-1.25.19-.64.31-.84.54c-.2.23-.3.5-.3.8h0c0,.4.17.72.5.97.33.25.86.44,1.58.58l1.08.21c1.01.2,1.74.47,2.18.83s.67.85.67,1.48h0c0,.49-.14.91-.43,1.27-.29.36-.7.63-1.23.83s-1.16.29-1.88.29-1.32-.1-1.85-.29Z"/>
    <path class="cls-1" d="M267.62,8.51c-.12-.11-.19-.23-.19-.39s.06-.28.19-.38.27-.16.45-.16.33.05.45.16.18.23.18.38-.06.28-.18.39-.27.16-.45.16-.33-.05-.45-.16Z"/>
    <path class="cls-1" d="M288.94.13h5.97v.72h-5.04v3.05h4.79v.71h-4.79v3.25h5.04v.72h-5.97V.13Z"/>
    <path class="cls-1" d="M307.81,4.07l-.23.64v-.38l-3.41-4.2h1.12l2.89,3.6h.45l-.64.29,3.14-3.89h1.07l-3.48,4.23v.37l-.23-.63,3.65,4.49h-1.12l-2.88-3.58h-.45l.64-.29-3.14,3.87h-1.06l3.67-4.52Z"/>
    <path class="cls-1" d="M321.67.13h5.97v.72h-5.04v3.05h4.79v.71h-4.79v3.25h5.04v.72h-5.97V.13Z"/>
    <path class="cls-1" d="M339.2,8.18c-.67-.36-1.19-.87-1.56-1.52-.37-.65-.55-1.42-.55-2.3h0c0-.89.18-1.66.55-2.31.37-.65.88-1.15,1.55-1.51.67-.36,1.46-.54,2.37-.54.68,0,1.29.11,1.84.34s1,.54,1.36.93.6.86.73,1.39v.06s-.93,0-.93,0l-.03-.11c-.13-.38-.33-.71-.6-.99-.27-.28-.6-.5-1-.65-.4-.15-.86-.23-1.37-.23-.71,0-1.33.15-1.86.45-.53.3-.94.72-1.22,1.26-.29.54-.43,1.18-.43,1.91h0c0,.74.15,1.37.44,1.92s.7.96,1.23,1.27c.53.3,1.15.45,1.85.45.51,0,.97-.08,1.36-.23.4-.15.73-.38,1.01-.66s.48-.63.61-1.03l.02-.05h.94v.06c-.14.53-.38,1-.74,1.39s-.81.71-1.36.93c-.55.22-1.16.33-1.85.33-.91,0-1.69-.18-2.37-.54Z"/>
    <path class="cls-1" d="M356.92,8.34c-.57-.26-1.01-.62-1.32-1.08s-.46-1-.46-1.62V.13h.93v5.46c0,.72.26,1.3.77,1.74.51.44,1.22.66,2.12.66s1.62-.22,2.13-.66c.51-.44.76-1.02.76-1.74V.13h.93v5.5c0,.62-.15,1.16-.46,1.62-.31.46-.75.82-1.32,1.08s-1.25.39-2.05.39-1.47-.13-2.05-.39Z"/>
    <path class="cls-1" d="M375.5.86h-3.27V.13h7.47v.72h-3.27v7.73h-.93V.86Z"/>
    <path class="cls-1" d="M389.14.13h.93v8.46h-.93V.13Z"/>
    <path class="cls-1" d="M401.88,8.19c-.67-.36-1.19-.86-1.56-1.51-.37-.65-.55-1.42-.55-2.31h0c0-.9.18-1.67.55-2.32.37-.65.89-1.15,1.56-1.51s1.46-.53,2.38-.53,1.72.18,2.39.53,1.19.86,1.55,1.51c.37.65.55,1.42.55,2.31h0c0,.9-.18,1.67-.55,2.33-.37.65-.88,1.16-1.55,1.51-.67.36-1.46.53-2.39.53s-1.72-.18-2.39-.53ZM406.15,7.54c.53-.3.94-.72,1.22-1.26s.43-1.18.43-1.91h0c0-.75-.15-1.39-.44-1.93s-.7-.96-1.23-1.25-1.16-.44-1.88-.44-1.34.15-1.88.44c-.53.29-.94.71-1.23,1.25s-.44,1.18-.44,1.92h0c0,.75.15,1.38.44,1.93s.7.96,1.23,1.26c.53.3,1.16.45,1.88.45s1.35-.15,1.88-.45Z"/>
    <path class="cls-1" d="M418.46.13h.92l6.63,8.1-1.21-.99h.43V.13h.93v8.46h-.93l-6.63-8.1,1.21.98h-.44v7.11h-.92V.13Z"/>
    <path class="cls-1" d="M436.36,8.51c-.12-.11-.19-.23-.19-.39s.06-.28.19-.38.27-.16.45-.16.33.05.45.16.18.23.18.38-.06.28-.18.39-.27.16-.45.16-.33-.05-.45-.16Z"/>
  </g>
</svg>